<?xml version="1.0" encoding="UTF-8"?>
<svg version="1.1" xmlns="http://www.w3.org/2000/svg" width="736" height="661">
<path d="M0 0 C1.26199219 -0.01224609 2.52398437 -0.02449219 3.82421875 -0.03710938 C5.02691406 -0.03904297 6.22960937 -0.04097656 7.46875 -0.04296875 C8.57669922 -0.04707764 9.68464844 -0.05118652 10.82617188 -0.05541992 C13.5 0.1875 13.5 0.1875 15.5 2.1875 C15.72705078 4.98486328 15.72705078 4.98486328 15.6953125 8.5078125 C15.69031738 9.63977051 15.68532227 10.77172852 15.68017578 11.93798828 C15.66196777 13.38157715 15.64375977 14.82516602 15.625 16.3125 C15.58375 20.89125 15.5425 25.47 15.5 30.1875 C25.07 30.1875 34.64 30.1875 44.5 30.1875 C45.88308781 32.95367563 45.61210196 35.19768 45.59765625 38.2890625 C45.59515869 39.38041504 45.59266113 40.47176758 45.59008789 41.59619141 C45.57643188 43.68326416 45.57643188 43.68326416 45.5625 45.8125 C45.541875 50.22625 45.52125 54.64 45.5 59.1875 C55.07 59.5175 64.64 59.8475 74.5 60.1875 C74.5 69.7575 74.5 79.3275 74.5 89.1875 C83.25064147 89.14797282 83.25064147 89.14797282 92.0012207 89.09741211 C93.09007568 89.09491455 94.17893066 89.09241699 95.30078125 89.08984375 C96.41622314 89.08460693 97.53166504 89.07937012 98.6809082 89.07397461 C101.5 89.1875 101.5 89.1875 104.5 90.1875 C104.5 99.7575 104.5 109.3275 104.5 119.1875 C107.16054443 119.18226318 109.82108887 119.17702637 112.56225586 119.17163086 C121.33133771 119.1550958 130.10042023 119.14402912 138.86951351 119.13568783 C144.18865213 119.13045878 149.50777484 119.12336073 154.8269043 119.11206055 C159.95563985 119.10123245 165.08436006 119.09522333 170.21310616 119.09262276 C172.17441614 119.09076837 174.13572524 119.08714749 176.09702873 119.08176994 C178.83415447 119.07456054 181.57121597 119.07350901 184.30834961 119.07397461 C185.53725418 119.0685817 185.53725418 119.0685817 186.79098511 119.06307983 C192.38594784 119.07344784 192.38594784 119.07344784 193.5 120.1875 C193.58767112 122.26012076 193.60695873 124.33570294 193.59765625 126.41015625 C193.59443359 127.67021484 193.59121094 128.93027344 193.58789062 130.22851562 C193.57953403 131.56901109 193.57106907 132.90950588 193.5625 134.25 C193.5574866 135.59439942 193.55292342 136.9388006 193.54882812 138.28320312 C193.53699488 141.58467941 193.52050971 144.88606803 193.5 148.1875 C194.58661171 148.18416908 194.58661171 148.18416908 195.69517517 148.18077087 C202.50843453 148.16076773 209.32168953 148.14552575 216.13497066 148.13568783 C219.63808885 148.13046011 223.14118285 148.1233645 226.64428711 148.11206055 C230.66780841 148.09915794 234.69130414 148.09427088 238.71484375 148.08984375 C239.97836166 148.08468246 241.24187958 148.07952118 242.54368591 148.07420349 C243.704814 148.07412796 244.86594208 148.07405243 246.06225586 148.07397461 C247.6044706 148.07064369 247.6044706 148.07064369 249.17784119 148.06724548 C251.5 148.1875 251.5 148.1875 252.5 149.1875 C252.58775605 151.33308827 252.60695219 153.48154421 252.59765625 155.62890625 C252.59443359 156.93408203 252.59121094 158.23925781 252.58789062 159.58398438 C252.57953401 160.9726569 252.57106905 162.36132877 252.5625 163.75 C252.55748666 165.14257656 252.55292347 166.53515481 252.54882812 167.92773438 C252.53699434 171.3476987 252.5205088 174.76757844 252.5 178.1875 C253.37325928 178.18226318 254.24651855 178.17702637 255.14624023 178.17163086 C258.37589273 178.15462249 261.60552245 178.14206631 264.83520508 178.13256836 C266.23495228 178.1275292 267.6346942 178.12069784 269.03442383 178.11206055 C271.04245777 178.0999768 273.05052957 178.09480193 275.05859375 178.08984375 C276.87315063 178.08198853 276.87315063 178.08198853 278.72436523 178.07397461 C281.5 178.1875 281.5 178.1875 282.5 179.1875 C282.6584265 181.2583472 282.75124422 183.33428029 282.81640625 185.41015625 C282.85830078 186.67021484 282.90019531 187.93027344 282.94335938 189.22851562 C282.98317596 190.56900736 283.02288814 191.9095022 283.0625 193.25 C283.10568042 194.59441523 283.14929456 195.9388166 283.19335938 197.28320312 C283.29985358 200.5845234 283.4018646 203.88592236 283.5 207.1875 C284.76444946 207.22508423 284.76444946 207.22508423 286.05444336 207.26342773 C289.17241674 207.35838155 292.29021503 207.45762448 295.40795898 207.55981445 C296.75914147 207.60321223 298.11038053 207.6448837 299.46166992 207.68481445 C301.40036701 207.74239952 303.33886276 207.80664298 305.27734375 207.87109375 C307.02905884 207.92608032 307.02905884 207.92608032 308.81616211 207.98217773 C311.5 208.1875 311.5 208.1875 312.5 209.1875 C312.58767112 211.26012076 312.60695873 213.33570294 312.59765625 215.41015625 C312.59443359 216.67021484 312.59121094 217.93027344 312.58789062 219.22851562 C312.57953403 220.56901109 312.57106907 221.90950588 312.5625 223.25 C312.5574866 224.59439942 312.55292342 225.9388006 312.54882812 227.28320312 C312.53699488 230.58467941 312.52050971 233.88606803 312.5 237.1875 C313.34296631 237.18226318 314.18593262 237.17702637 315.05444336 237.17163086 C318.17227936 237.15462174 321.29009177 237.14206594 324.40795898 237.13256836 C325.75920386 237.12752943 327.11044326 237.12069823 328.46166992 237.11206055 C330.40020434 237.09997581 332.338778 237.09480172 334.27734375 237.08984375 C335.44515381 237.08460693 336.61296387 237.07937012 337.81616211 237.07397461 C340.5 237.1875 340.5 237.1875 341.5 238.1875 C341.59340434 239.81424778 341.61745171 241.44504051 341.61352539 243.07446289 C341.61344986 244.11546646 341.61337433 245.15647003 341.61329651 246.22901917 C341.60813522 247.3612944 341.60297394 248.49356964 341.59765625 249.66015625 C341.5962413 250.81293564 341.59482635 251.96571503 341.59336853 253.15342712 C341.58775005 256.85231064 341.57519442 260.55113464 341.5625 264.25 C341.55748738 266.75065017 341.55292406 269.25130129 341.54882812 271.75195312 C341.53777462 277.89715588 341.52101852 284.04232369 341.5 290.1875 C338.73382437 291.57058781 336.48982 291.29960196 333.3984375 291.28515625 C332.18671875 291.28193359 330.975 291.27871094 329.7265625 291.27539062 C327.82003906 291.26282227 327.82003906 291.26282227 325.875 291.25 C324.59625 291.24548828 323.3175 291.24097656 322 291.23632812 C318.83328708 291.22451203 315.66666644 291.20803815 312.5 291.1875 C312.50523682 292.03046631 312.51047363 292.87343262 312.51586914 293.74194336 C312.53287826 296.85977936 312.54543406 299.97759177 312.55493164 303.09545898 C312.55997057 304.44670386 312.56680177 305.79794326 312.57543945 307.14916992 C312.58752419 309.08770434 312.59269828 311.026278 312.59765625 312.96484375 C312.60289307 314.13265381 312.60812988 315.30046387 312.61352539 316.50366211 C312.5 319.1875 312.5 319.1875 311.5 320.1875 C309.35441173 320.27525605 307.20595579 320.29445219 305.05859375 320.28515625 C303.75341797 320.28193359 302.44824219 320.27871094 301.10351562 320.27539062 C299.7148431 320.26703401 298.32617123 320.25856905 296.9375 320.25 C295.54492344 320.24498666 294.15234519 320.24042347 292.75976562 320.23632812 C289.3398013 320.22449434 285.91992156 320.2080088 282.5 320.1875 C282.50523682 321.06075928 282.51047363 321.93401855 282.51586914 322.83374023 C282.53287751 326.06339273 282.54543369 329.29302245 282.55493164 332.52270508 C282.5599708 333.92245228 282.56680216 335.3221942 282.57543945 336.72192383 C282.5875232 338.72995777 282.59269807 340.73802957 282.59765625 342.74609375 C282.60289307 343.95579834 282.60812988 345.16550293 282.61352539 346.41186523 C282.5 349.1875 282.5 349.1875 281.5 350.1875 C278.92020733 350.28527783 276.36720672 350.31744888 273.78697205 350.30775452 C272.96940715 350.30860894 272.15184225 350.30946337 271.30950266 350.31034368 C268.54867989 350.31200099 265.78791685 350.30647304 263.02709961 350.30102539 C261.05653383 350.30074355 259.08596794 350.3009012 257.11540222 350.3014679 C251.74785491 350.30175598 246.38032973 350.2958575 241.01278758 350.28889394 C235.41002053 350.2826622 229.80725302 350.28205674 224.20448303 350.28086853 C213.58680442 350.27775468 202.96913604 350.26954057 192.35146195 350.25951904 C180.26702676 350.24835957 168.18259109 350.24284787 156.09815204 350.23782361 C131.23209567 350.227358 106.36604841 350.20975753 81.5 350.1875 C79.25896849 345.70543698 80.5 340.19859879 80.5 335.1875 C59.05 335.1875 37.6 335.1875 15.5 335.1875 C15.5 344.4275 15.5 353.6675 15.5 363.1875 C13.5 365.1875 13.5 365.1875 10.70263672 365.41455078 C9.54006348 365.40407715 8.37749023 365.39360352 7.1796875 365.3828125 C5.92285156 365.37636719 4.66601562 365.36992187 3.37109375 365.36328125 C2.05238281 365.34652344 0.73367188 365.32976562 -0.625 365.3125 C-1.96483721 365.30246983 -3.30468152 365.29334404 -4.64453125 365.28515625 C-7.92986573 365.26152075 -11.21484465 365.22857234 -14.5 365.1875 C-14.49214478 366.45194946 -14.49214478 366.45194946 -14.48413086 367.74194336 C-14.46712174 370.85977936 -14.45456594 373.97759177 -14.44506836 377.09545898 C-14.44002943 378.44670386 -14.43319823 379.79794326 -14.42456055 381.14916992 C-14.41247581 383.08770434 -14.40730172 385.026278 -14.40234375 386.96484375 C-14.39448853 388.71655884 -14.39448853 388.71655884 -14.38647461 390.50366211 C-14.5 393.1875 -14.5 393.1875 -15.5 394.1875 C-17.80053835 394.28193335 -20.10402173 394.30492128 -22.40649414 394.30102539 C-23.12840439 394.30117142 -23.85031464 394.30131744 -24.59410095 394.3014679 C-26.99114947 394.30076869 -29.38812123 394.29297595 -31.78515625 394.28515625 C-33.44282489 394.2832921 -35.10049407 394.28186818 -36.75816345 394.28086853 C-41.12954214 394.27704312 -45.50088781 394.26721265 -49.87225342 394.25616455 C-54.32954461 394.24595092 -58.78684111 394.24137101 -63.24414062 394.23632812 C-71.99611062 394.2255904 -80.7480474 394.20799342 -89.5 394.1875 C-89.5 389.5675 -89.5 384.9475 -89.5 380.1875 C-91.49804688 380.21070313 -93.49609375 380.23390625 -95.5546875 380.2578125 C-97.48746239 380.27171736 -99.42023852 380.28555206 -101.35302734 380.29736328 C-103.3591136 380.31238107 -105.36511324 380.33778981 -107.37109375 380.36328125 C-108.62792969 380.36972656 -109.88476562 380.37617188 -111.1796875 380.3828125 C-112.34226074 380.39328613 -113.50483398 380.40375977 -114.70263672 380.41455078 C-117.5 380.1875 -117.5 380.1875 -119.5 378.1875 C-119.75396729 376.32800293 -119.75396729 376.32800293 -119.75878906 374.04492188 C-119.76509338 373.19063599 -119.77139771 372.3363501 -119.77789307 371.45617676 C-119.77182037 370.07021301 -119.77182037 370.07021301 -119.765625 368.65625 C-119.76753845 367.70939331 -119.7694519 366.76253662 -119.77142334 365.7869873 C-119.77278573 363.78295628 -119.76908556 361.77891646 -119.76074219 359.77490234 C-119.75004347 356.69999447 -119.76063572 353.62567086 -119.7734375 350.55078125 C-119.77211591 348.60676954 -119.76955354 346.66275819 -119.765625 344.71875 C-119.76967346 343.79477417 -119.77372192 342.87079834 -119.77789307 341.91882324 C-119.76843658 340.63739441 -119.76843658 340.63739441 -119.75878906 339.33007812 C-119.75719788 338.57666138 -119.75560669 337.82324463 -119.75396729 337.04699707 C-119.5 335.1875 -119.5 335.1875 -117.5 333.1875 C-114.70263672 332.96044922 -114.70263672 332.96044922 -111.1796875 332.9921875 C-109.92285156 332.99863281 -108.66601562 333.00507813 -107.37109375 333.01171875 C-106.05238281 333.02847656 -104.73367187 333.04523438 -103.375 333.0625 C-102.03516279 333.07253017 -100.69531848 333.08165596 -99.35546875 333.08984375 C-96.07023624 333.11347852 -92.78509602 333.1493505 -89.5 333.1875 C-89.5 326.5875 -89.5 319.9875 -89.5 313.1875 C-103.69 313.1875 -117.88 313.1875 -132.5 313.1875 C-134.5 308.1875 -134.5 308.1875 -134.5 298.1875 C-144.07 298.1875 -153.64 298.1875 -163.5 298.1875 C-163.5 290.9275 -163.5 283.6675 -163.5 276.1875 C-175.38 276.1875 -187.26 276.1875 -199.5 276.1875 C-199.46040482 285.3573291 -199.46040482 285.3573291 -199.40991211 294.52709961 C-199.40741455 295.66155518 -199.40491699 296.79601074 -199.40234375 297.96484375 C-199.39710693 299.13265381 -199.39187012 300.30046387 -199.38647461 301.50366211 C-199.5 304.1875 -199.5 304.1875 -200.5 305.1875 C-202.48642661 305.33358293 -204.47768786 305.41487555 -206.46875 305.46875 C-207.67917969 305.50613281 -208.88960938 305.54351562 -210.13671875 305.58203125 C-214 305.6875 -214 305.6875 -217.86328125 305.79296875 C-219.07371094 305.83035156 -220.28414063 305.86773437 -221.53125 305.90625 C-222.65080078 305.93654297 -223.77035156 305.96683594 -224.92382812 305.99804688 C-227.43064283 305.90036235 -227.43064283 305.90036235 -228.5 307.1875 C-228.64452718 308.66257118 -228.72694925 310.1438604 -228.78125 311.625 C-228.81863281 312.51960938 -228.85601562 313.41421875 -228.89453125 314.3359375 C-228.92933594 315.27695312 -228.96414062 316.21796875 -229 317.1875 C-229.06858488 319.04183195 -229.14127813 320.89601808 -229.21875 322.75 C-229.24904297 323.57628906 -229.27933594 324.40257812 -229.31054688 325.25390625 C-229.5 327.1875 -229.5 327.1875 -230.5 328.1875 C-232.57262076 328.27517112 -234.64820294 328.29445873 -236.72265625 328.28515625 C-237.98271484 328.28193359 -239.24277344 328.27871094 -240.54101562 328.27539062 C-241.88151109 328.26703403 -243.22200588 328.25856907 -244.5625 328.25 C-245.90689942 328.2449866 -247.2513006 328.24042342 -248.59570312 328.23632812 C-251.89717941 328.22449488 -255.19856803 328.20800971 -258.5 328.1875 C-258.48839844 329.11433594 -258.47679687 330.04117187 -258.46484375 330.99609375 C-258.45582031 332.19363281 -258.44679688 333.39117187 -258.4375 334.625 C-258.42589844 335.81996094 -258.41429687 337.01492188 -258.40234375 338.24609375 C-258.5 341.1875 -258.5 341.1875 -259.5 342.1875 C-263.57077434 342.57409555 -267.66455276 342.65833218 -271.75 342.8125 C-272.89597656 342.8640625 -274.04195312 342.915625 -275.22265625 342.96875 C-276.32996094 343.01257813 -277.43726563 343.05640625 -278.578125 343.1015625 C-280.10034668 343.1627124 -280.10034668 343.1627124 -281.65332031 343.22509766 C-284.5 343.1875 -284.5 343.1875 -289.5 342.1875 C-289.5 329.9775 -289.5 317.7675 -289.5 305.1875 C-287.19 304.8575 -284.88 304.5275 -282.5 304.1875 C-282.50785522 302.55953491 -282.50785522 302.55953491 -282.51586914 300.89868164 C-282.53391836 296.88632018 -282.54543171 292.87396233 -282.55493164 288.86157227 C-282.55997204 287.12230832 -282.5668043 285.38304864 -282.57543945 283.64379883 C-282.58751792 281.14924063 -282.59323108 278.65473827 -282.59765625 276.16015625 C-282.60281754 275.37786148 -282.60797882 274.59556671 -282.61329651 273.78956604 C-282.61349226 271.92182886 -282.56199694 270.05420796 -282.5 268.1875 C-282.17 267.8575 -281.84 267.5275 -281.5 267.1875 C-276.88 267.1875 -272.26 267.1875 -267.5 267.1875 C-267.5 248.0475 -267.5 228.9075 -267.5 209.1875 C-272.12 209.1875 -276.74 209.1875 -281.5 209.1875 C-283.33219646 207.35530354 -282.73901328 204.43036259 -282.81640625 201.96484375 C-282.85830078 200.70478516 -282.90019531 199.44472656 -282.94335938 198.14648438 C-282.98317596 196.80599264 -283.02288814 195.4654978 -283.0625 194.125 C-283.10568042 192.78058477 -283.14929456 191.4361834 -283.19335938 190.09179688 C-283.29985358 186.7904766 -283.4018646 183.48907764 -283.5 180.1875 C-284.42683594 180.12691406 -285.35367188 180.06632813 -286.30859375 180.00390625 C-287.50613281 179.92011719 -288.70367187 179.83632812 -289.9375 179.75 C-291.72994141 179.62818359 -291.72994141 179.62818359 -293.55859375 179.50390625 C-296.5 179.1875 -296.5 179.1875 -297.5 178.1875 C-297.58767112 176.11487924 -297.60695873 174.03929706 -297.59765625 171.96484375 C-297.59443359 170.70478516 -297.59121094 169.44472656 -297.58789062 168.14648438 C-297.57953403 166.80598891 -297.57106907 165.46549412 -297.5625 164.125 C-297.5574866 162.78060058 -297.55292342 161.4361994 -297.54882812 160.09179688 C-297.53699488 156.79032059 -297.52050971 153.48893197 -297.5 150.1875 C-298.76457031 150.20490234 -298.76457031 150.20490234 -300.0546875 150.22265625 C-301.69824219 150.23619141 -301.69824219 150.23619141 -303.375 150.25 C-304.46554687 150.26160156 -305.55609375 150.27320313 -306.6796875 150.28515625 C-309.5 150.1875 -309.5 150.1875 -311.5 149.1875 C-311.52465746 145.0757744 -311.54283959 140.96407722 -311.55493164 136.85229492 C-311.5599708 135.45254772 -311.56680216 134.0528058 -311.57543945 132.65307617 C-311.5875232 130.64504223 -311.59269807 128.63697043 -311.59765625 126.62890625 C-311.60289307 125.41920166 -311.60812988 124.20949707 -311.61352539 122.96313477 C-311.5 120.1875 -311.5 120.1875 -310.5 119.1875 C-308.4394469 119.08756468 -306.3754741 119.05669094 -304.3125 119.0546875 C-303.05695313 119.05339844 -301.80140625 119.05210937 -300.5078125 119.05078125 C-299.85071289 119.05287598 -299.19361328 119.0549707 -298.51660156 119.05712891 C-296.50838665 119.06247766 -294.50039541 119.05718309 -292.4921875 119.05078125 C-291.23664063 119.05207031 -289.98109375 119.05335938 -288.6875 119.0546875 C-287.52605469 119.05581543 -286.36460937 119.05694336 -285.16796875 119.05810547 C-282.5 119.1875 -282.5 119.1875 -281.5 120.1875 C-281.26518307 122.37042774 -281.08636677 124.55953174 -280.9375 126.75 C-280.81181641 128.54630859 -280.81181641 128.54630859 -280.68359375 130.37890625 C-280.62300781 131.30574219 -280.56242187 132.23257813 -280.5 133.1875 C-279.55362671 133.22508423 -279.55362671 133.22508423 -278.58813477 133.26342773 C-275.74603175 133.37904137 -272.90428917 133.50192316 -270.0625 133.625 C-269.06927734 133.66431641 -268.07605469 133.70363281 -267.05273438 133.74414062 C-266.10849609 133.78603516 -265.16425781 133.82792969 -264.19140625 133.87109375 C-262.87958374 133.92608032 -262.87958374 133.92608032 -261.54125977 133.98217773 C-259.5 134.1875 -259.5 134.1875 -258.5 135.1875 C-258.42741054 137.37389453 -258.41626217 139.56250389 -258.4375 141.75 C-258.44652344 142.94753906 -258.45554687 144.14507812 -258.46484375 145.37890625 C-258.47644531 146.30574219 -258.48804688 147.23257813 -258.5 148.1875 C-257.65703369 148.18226318 -256.81406738 148.17702637 -255.94555664 148.17163086 C-252.82772064 148.15462174 -249.70990823 148.14206594 -246.59204102 148.13256836 C-245.24079614 148.12752943 -243.88955674 148.12069823 -242.53833008 148.11206055 C-240.59979566 148.09997581 -238.661222 148.09480172 -236.72265625 148.08984375 C-235.55484619 148.08460693 -234.38703613 148.07937012 -233.18383789 148.07397461 C-230.5 148.1875 -230.5 148.1875 -229.5 149.1875 C-229.34285346 150.82006758 -229.24914586 152.45885338 -229.18359375 154.09765625 C-229.14548584 154.988479 -229.10737793 155.87930176 -229.06811523 156.79711914 C-229.00346069 158.50629517 -229.00346069 158.50629517 -228.9375 160.25 C-228.7209375 165.6640625 -228.7209375 165.6640625 -228.5 171.1875 C-219.26 171.1875 -210.02 171.1875 -200.5 171.1875 C-199.13160637 173.92428725 -199.28365182 176.23014424 -199.18359375 179.2890625 C-199.14548584 180.38041504 -199.10737793 181.47176758 -199.06811523 182.59619141 C-199.00346069 184.68326416 -199.00346069 184.68326416 -198.9375 186.8125 C-198.7209375 193.433125 -198.7209375 193.433125 -198.5 200.1875 C-187.28 200.1875 -176.06 200.1875 -164.5 200.1875 C-164.17 188.3075 -163.84 176.4275 -163.5 164.1875 C-161.17304476 163.02402238 -159.80059827 163.0584492 -157.2109375 163.0546875 C-156.35113281 163.05339844 -155.49132812 163.05210937 -154.60546875 163.05078125 C-153.70441406 163.05464844 -152.80335938 163.05851563 -151.875 163.0625 C-150.99714844 163.05863281 -150.11929688 163.05476562 -149.21484375 163.05078125 C-134.61502511 163.07247489 -134.61502511 163.07247489 -132.5 165.1875 C-132.5 169.4775 -132.5 173.7675 -132.5 178.1875 C-123.26 178.1875 -114.02 178.1875 -104.5 178.1875 C-104.51160156 176.10566406 -104.52320313 174.02382812 -104.53515625 171.87890625 C-104.54210735 169.87003702 -104.54902389 167.86116749 -104.55493164 165.85229492 C-104.5599708 164.45254772 -104.56680216 163.0528058 -104.57543945 161.65307617 C-104.5875232 159.64504223 -104.59269807 157.63697043 -104.59765625 155.62890625 C-104.60289307 154.41920166 -104.60812988 153.20949707 -104.61352539 151.96313477 C-104.5 149.1875 -104.5 149.1875 -103.5 148.1875 C-101.35441173 148.09974395 -99.20595579 148.08054781 -97.05859375 148.08984375 C-95.75341797 148.09306641 -94.44824219 148.09628906 -93.10351562 148.09960938 C-91.7148431 148.10796599 -90.32617123 148.11643095 -88.9375 148.125 C-87.54492344 148.13001334 -86.15234519 148.13457653 -84.75976562 148.13867188 C-81.3398013 148.15050566 -77.91992156 148.1669912 -74.5 148.1875 C-74.50523682 147.34453369 -74.51047363 146.50156738 -74.51586914 145.63305664 C-74.53287826 142.51522064 -74.54543406 139.39740823 -74.55493164 136.27954102 C-74.55997057 134.92829614 -74.56680177 133.57705674 -74.57543945 132.22583008 C-74.58752419 130.28729566 -74.59269828 128.348722 -74.59765625 126.41015625 C-74.60289307 125.24234619 -74.60812988 124.07453613 -74.61352539 122.87133789 C-74.5 120.1875 -74.5 120.1875 -73.5 119.1875 C-54.36 119.1875 -35.22 119.1875 -15.5 119.1875 C-15.5 80.2475 -15.5 41.3075 -15.5 1.1875 C-11.0372169 -1.04389155 -4.90089668 0.00250301 0 0 Z M201.5 268.1875 C200.84 270.4975 200.18 272.8075 199.5 275.1875 C198.44498291 275.21255615 197.38996582 275.2376123 196.30297852 275.26342773 C192.40229372 275.35734109 188.50179375 275.45760034 184.60131836 275.55981445 C182.91060701 275.60322439 181.21985009 275.64489489 179.52905273 275.68481445 C177.10386394 275.74237094 174.67890585 275.80610649 172.25390625 275.87109375 C171.11327477 275.89616249 171.11327477 275.89616249 169.94960022 275.92173767 C166.42917969 275.70841268 166.42917969 275.70841268 163.5 277.1875 C163.42741054 279.37389453 163.41626217 281.56250389 163.4375 283.75 C163.44652344 284.94753906 163.45554687 286.14507812 163.46484375 287.37890625 C163.47644531 288.30574219 163.48804688 289.23257812 163.5 290.1875 C162.39974991 290.18527939 161.29949982 290.18305878 160.16590881 290.18077087 C149.8207718 290.16054033 139.47563877 290.14552829 129.13048649 290.13568783 C123.81134787 290.13045878 118.49222516 290.12336073 113.1730957 290.11206055 C108.04436015 290.10123245 102.91563994 290.09522333 97.78689384 290.09262276 C95.82558386 290.09076837 93.86427476 290.08714749 91.90297127 290.08176994 C89.16584553 290.07456054 86.42878403 290.07350901 83.69165039 290.07397461 C82.87238068 290.07037933 82.05311096 290.06678406 81.20901489 290.06307983 C77.55496562 289.721945 77.55496562 289.721945 74.5 291.1875 C74.42741054 293.37389453 74.41626217 295.56250389 74.4375 297.75 C74.458125 299.874375 74.47875 301.99875 74.5 304.1875 C81.43 304.5175 88.36 304.8475 95.5 305.1875 C95.72786458 308.54036458 95.95572917 311.89322917 96.18359375 315.24609375 C96.17656114 318.07320244 96.17656114 318.07320244 97.5 319.1875 C99.86547519 319.28513971 102.20170935 319.31747288 104.56764221 319.30775452 C105.31578672 319.30860894 106.06393123 319.30946337 106.83474678 319.31034368 C109.36063947 319.31200073 111.88646686 319.30647348 114.41235352 319.30102539 C116.21543374 319.30074354 118.01851408 319.30090121 119.82159424 319.3014679 C124.73254539 319.30175596 129.64347234 319.29585784 134.55441785 319.28889394 C139.68072212 319.28266184 144.80702688 319.28205672 149.93333435 319.28086853 C159.64790626 319.27775479 169.36246697 319.26954083 179.07703394 319.25951904 C190.13367717 319.24835923 201.19032093 319.24284779 212.24696839 319.23782361 C234.99798514 319.22735825 257.74899195 319.20975798 280.5 319.1875 C281.59911549 315.89015354 281.6139456 313.45791255 281.59765625 309.98828125 C281.59390991 308.35499878 281.59390991 308.35499878 281.59008789 306.6887207 C281.58098389 305.30644287 281.57187988 303.92416504 281.5625 302.5 C281.5315625 295.9103125 281.5315625 295.9103125 281.5 289.1875 C291.07 289.1875 300.64 289.1875 310.5 289.1875 C310.5 282.5875 310.5 275.9875 310.5 269.1875 C308.16072943 268.01786471 306.80323352 268.06419411 304.19735718 268.06724548 C303.29429337 268.06587082 302.39122955 268.06449615 301.46080017 268.06307983 C299.97079247 268.06847275 299.97079247 268.06847275 298.45068359 268.07397461 C297.40675949 268.07382858 296.36283539 268.07368256 295.28727722 268.0735321 C291.82430977 268.07423078 288.3613956 268.08202109 284.8984375 268.08984375 C282.50232981 268.09170809 280.10622173 268.09313192 277.71011353 268.09413147 C271.39391025 268.09795539 265.07772986 268.10778462 258.76153564 268.11883545 C252.32019358 268.12905226 245.87884783 268.13362967 239.4375 268.13867188 C226.79165689 268.14940698 214.14582966 268.16629055 201.5 268.1875 Z " fill="#536C8D" transform="translate(342.5,66.8125)"/>
<path d="M0 0 C1.26199219 -0.01224609 2.52398437 -0.02449219 3.82421875 -0.03710938 C5.02691406 -0.03904297 6.22960937 -0.04097656 7.46875 -0.04296875 C8.57669922 -0.04707764 9.68464844 -0.05118652 10.82617188 -0.05541992 C13.5 0.1875 13.5 0.1875 15.5 2.1875 C15.72705078 4.98486328 15.72705078 4.98486328 15.6953125 8.5078125 C15.69031738 9.63977051 15.68532227 10.77172852 15.68017578 11.93798828 C15.66196777 13.38157715 15.64375977 14.82516602 15.625 16.3125 C15.58375 20.89125 15.5425 25.47 15.5 30.1875 C25.07 30.1875 34.64 30.1875 44.5 30.1875 C45.88308781 32.95367563 45.61210196 35.19768 45.59765625 38.2890625 C45.59515869 39.38041504 45.59266113 40.47176758 45.59008789 41.59619141 C45.57643188 43.68326416 45.57643188 43.68326416 45.5625 45.8125 C45.541875 50.22625 45.52125 54.64 45.5 59.1875 C55.07 59.5175 64.64 59.8475 74.5 60.1875 C74.5 69.7575 74.5 79.3275 74.5 89.1875 C83.25064147 89.14797282 83.25064147 89.14797282 92.0012207 89.09741211 C93.09007568 89.09491455 94.17893066 89.09241699 95.30078125 89.08984375 C96.41622314 89.08460693 97.53166504 89.07937012 98.6809082 89.07397461 C101.5 89.1875 101.5 89.1875 104.5 90.1875 C104.5 99.7575 104.5 109.3275 104.5 119.1875 C107.16054443 119.18226318 109.82108887 119.17702637 112.56225586 119.17163086 C121.33133771 119.1550958 130.10042023 119.14402912 138.86951351 119.13568783 C144.18865213 119.13045878 149.50777484 119.12336073 154.8269043 119.11206055 C159.95563985 119.10123245 165.08436006 119.09522333 170.21310616 119.09262276 C172.17441614 119.09076837 174.13572524 119.08714749 176.09702873 119.08176994 C178.83415447 119.07456054 181.57121597 119.07350901 184.30834961 119.07397461 C185.53725418 119.0685817 185.53725418 119.0685817 186.79098511 119.06307983 C192.38594784 119.07344784 192.38594784 119.07344784 193.5 120.1875 C193.58767112 122.26012076 193.60695873 124.33570294 193.59765625 126.41015625 C193.59443359 127.67021484 193.59121094 128.93027344 193.58789062 130.22851562 C193.57953403 131.56901109 193.57106907 132.90950588 193.5625 134.25 C193.5574866 135.59439942 193.55292342 136.9388006 193.54882812 138.28320312 C193.53699488 141.58467941 193.52050971 144.88606803 193.5 148.1875 C194.58661171 148.18416908 194.58661171 148.18416908 195.69517517 148.18077087 C202.50843453 148.16076773 209.32168953 148.14552575 216.13497066 148.13568783 C219.63808885 148.13046011 223.14118285 148.1233645 226.64428711 148.11206055 C230.66780841 148.09915794 234.69130414 148.09427088 238.71484375 148.08984375 C239.97836166 148.08468246 241.24187958 148.07952118 242.54368591 148.07420349 C243.704814 148.07412796 244.86594208 148.07405243 246.06225586 148.07397461 C247.6044706 148.07064369 247.6044706 148.07064369 249.17784119 148.06724548 C251.5 148.1875 251.5 148.1875 252.5 149.1875 C252.58775605 151.33308827 252.60695219 153.48154421 252.59765625 155.62890625 C252.59443359 156.93408203 252.59121094 158.23925781 252.58789062 159.58398438 C252.57953401 160.9726569 252.57106905 162.36132877 252.5625 163.75 C252.55748666 165.14257656 252.55292347 166.53515481 252.54882812 167.92773438 C252.53699434 171.3476987 252.5205088 174.76757844 252.5 178.1875 C253.37325928 178.18226318 254.24651855 178.17702637 255.14624023 178.17163086 C258.37589273 178.15462249 261.60552245 178.14206631 264.83520508 178.13256836 C266.23495228 178.1275292 267.6346942 178.12069784 269.03442383 178.11206055 C271.04245777 178.0999768 273.05052957 178.09480193 275.05859375 178.08984375 C276.87315063 178.08198853 276.87315063 178.08198853 278.72436523 178.07397461 C281.5 178.1875 281.5 178.1875 282.5 179.1875 C282.6584265 181.2583472 282.75124422 183.33428029 282.81640625 185.41015625 C282.85830078 186.67021484 282.90019531 187.93027344 282.94335938 189.22851562 C282.98317596 190.56900736 283.02288814 191.9095022 283.0625 193.25 C283.10568042 194.59441523 283.14929456 195.9388166 283.19335938 197.28320312 C283.29985358 200.5845234 283.4018646 203.88592236 283.5 207.1875 C284.76444946 207.22508423 284.76444946 207.22508423 286.05444336 207.26342773 C289.17241674 207.35838155 292.29021503 207.45762448 295.40795898 207.55981445 C296.75914147 207.60321223 298.11038053 207.6448837 299.46166992 207.68481445 C301.40036701 207.74239952 303.33886276 207.80664298 305.27734375 207.87109375 C307.02905884 207.92608032 307.02905884 207.92608032 308.81616211 207.98217773 C311.5 208.1875 311.5 208.1875 312.5 209.1875 C312.58767112 211.26012076 312.60695873 213.33570294 312.59765625 215.41015625 C312.59443359 216.67021484 312.59121094 217.93027344 312.58789062 219.22851562 C312.57953403 220.56901109 312.57106907 221.90950588 312.5625 223.25 C312.5574866 224.59439942 312.55292342 225.9388006 312.54882812 227.28320312 C312.53699488 230.58467941 312.52050971 233.88606803 312.5 237.1875 C313.34296631 237.18226318 314.18593262 237.17702637 315.05444336 237.17163086 C318.17227936 237.15462174 321.29009177 237.14206594 324.40795898 237.13256836 C325.75920386 237.12752943 327.11044326 237.12069823 328.46166992 237.11206055 C330.40020434 237.09997581 332.338778 237.09480172 334.27734375 237.08984375 C335.44515381 237.08460693 336.61296387 237.07937012 337.81616211 237.07397461 C340.5 237.1875 340.5 237.1875 341.5 238.1875 C341.59340434 239.81424778 341.61745171 241.44504051 341.61352539 243.07446289 C341.61344986 244.11546646 341.61337433 245.15647003 341.61329651 246.22901917 C341.60813522 247.3612944 341.60297394 248.49356964 341.59765625 249.66015625 C341.5962413 250.81293564 341.59482635 251.96571503 341.59336853 253.15342712 C341.58775005 256.85231064 341.57519442 260.55113464 341.5625 264.25 C341.55748738 266.75065017 341.55292406 269.25130129 341.54882812 271.75195312 C341.53777462 277.89715588 341.52101852 284.04232369 341.5 290.1875 C338.73382437 291.57058781 336.48982 291.29960196 333.3984375 291.28515625 C332.18671875 291.28193359 330.975 291.27871094 329.7265625 291.27539062 C327.82003906 291.26282227 327.82003906 291.26282227 325.875 291.25 C324.59625 291.24548828 323.3175 291.24097656 322 291.23632812 C318.83328708 291.22451203 315.66666644 291.20803815 312.5 291.1875 C312.50523682 292.03046631 312.51047363 292.87343262 312.51586914 293.74194336 C312.53287826 296.85977936 312.54543406 299.97759177 312.55493164 303.09545898 C312.55997057 304.44670386 312.56680177 305.79794326 312.57543945 307.14916992 C312.58752419 309.08770434 312.59269828 311.026278 312.59765625 312.96484375 C312.60289307 314.13265381 312.60812988 315.30046387 312.61352539 316.50366211 C312.5 319.1875 312.5 319.1875 311.5 320.1875 C309.35441173 320.27525605 307.20595579 320.29445219 305.05859375 320.28515625 C303.75341797 320.28193359 302.44824219 320.27871094 301.10351562 320.27539062 C299.7148431 320.26703401 298.32617123 320.25856905 296.9375 320.25 C295.54492344 320.24498666 294.15234519 320.24042347 292.75976562 320.23632812 C289.3398013 320.22449434 285.91992156 320.2080088 282.5 320.1875 C282.50523682 321.06075928 282.51047363 321.93401855 282.51586914 322.83374023 C282.53287751 326.06339273 282.54543369 329.29302245 282.55493164 332.52270508 C282.5599708 333.92245228 282.56680216 335.3221942 282.57543945 336.72192383 C282.5875232 338.72995777 282.59269807 340.73802957 282.59765625 342.74609375 C282.60289307 343.95579834 282.60812988 345.16550293 282.61352539 346.41186523 C282.5 349.1875 282.5 349.1875 281.5 350.1875 C278.92020733 350.28527783 276.36720672 350.31744888 273.78697205 350.30775452 C272.96940715 350.30860894 272.15184225 350.30946337 271.30950266 350.31034368 C268.54867989 350.31200099 265.78791685 350.30647304 263.02709961 350.30102539 C261.05653383 350.30074355 259.08596794 350.3009012 257.11540222 350.3014679 C251.74785491 350.30175598 246.38032973 350.2958575 241.01278758 350.28889394 C235.41002053 350.2826622 229.80725302 350.28205674 224.20448303 350.28086853 C213.58680442 350.27775468 202.96913604 350.26954057 192.35146195 350.25951904 C180.26702676 350.24835957 168.18259109 350.24284787 156.09815204 350.23782361 C131.23209567 350.227358 106.36604841 350.20975753 81.5 350.1875 C79.25896849 345.70543698 80.5 340.19859879 80.5 335.1875 C59.05 335.1875 37.6 335.1875 15.5 335.1875 C15.5 344.4275 15.5 353.6675 15.5 363.1875 C13.5 365.1875 13.5 365.1875 10.70263672 365.41455078 C9.54006348 365.40407715 8.37749023 365.39360352 7.1796875 365.3828125 C5.92285156 365.37636719 4.66601562 365.36992187 3.37109375 365.36328125 C2.05238281 365.34652344 0.73367188 365.32976562 -0.625 365.3125 C-1.96483721 365.30246983 -3.30468152 365.29334404 -4.64453125 365.28515625 C-7.92986573 365.26152075 -11.21484465 365.22857234 -14.5 365.1875 C-14.49214478 366.45194946 -14.49214478 366.45194946 -14.48413086 367.74194336 C-14.46712174 370.85977936 -14.45456594 373.97759177 -14.44506836 377.09545898 C-14.44002943 378.44670386 -14.43319823 379.79794326 -14.42456055 381.14916992 C-14.41247581 383.08770434 -14.40730172 385.026278 -14.40234375 386.96484375 C-14.39448853 388.71655884 -14.39448853 388.71655884 -14.38647461 390.50366211 C-14.5 393.1875 -14.5 393.1875 -15.5 394.1875 C-17.80053835 394.28193335 -20.10402173 394.30492128 -22.40649414 394.30102539 C-23.12840439 394.30117142 -23.85031464 394.30131744 -24.59410095 394.3014679 C-26.99114947 394.30076869 -29.38812123 394.29297595 -31.78515625 394.28515625 C-33.44282489 394.2832921 -35.10049407 394.28186818 -36.75816345 394.28086853 C-41.12954214 394.27704312 -45.50088781 394.26721265 -49.87225342 394.25616455 C-54.32954461 394.24595092 -58.78684111 394.24137101 -63.24414062 394.23632812 C-71.99611062 394.2255904 -80.7480474 394.20799342 -89.5 394.1875 C-89.5 389.5675 -89.5 384.9475 -89.5 380.1875 C-91.49804688 380.21070313 -93.49609375 380.23390625 -95.5546875 380.2578125 C-97.48746239 380.27171736 -99.42023852 380.28555206 -101.35302734 380.29736328 C-103.3591136 380.31238107 -105.36511324 380.33778981 -107.37109375 380.36328125 C-108.62792969 380.36972656 -109.88476562 380.37617188 -111.1796875 380.3828125 C-112.34226074 380.39328613 -113.50483398 380.40375977 -114.70263672 380.41455078 C-117.5 380.1875 -117.5 380.1875 -119.5 378.1875 C-119.75396729 376.32800293 -119.75396729 376.32800293 -119.75878906 374.04492188 C-119.76509338 373.19063599 -119.77139771 372.3363501 -119.77789307 371.45617676 C-119.77182037 370.07021301 -119.77182037 370.07021301 -119.765625 368.65625 C-119.76753845 367.70939331 -119.7694519 366.76253662 -119.77142334 365.7869873 C-119.77278573 363.78295628 -119.76908556 361.77891646 -119.76074219 359.77490234 C-119.75004347 356.69999447 -119.76063572 353.62567086 -119.7734375 350.55078125 C-119.77211591 348.60676954 -119.76955354 346.66275819 -119.765625 344.71875 C-119.76967346 343.79477417 -119.77372192 342.87079834 -119.77789307 341.91882324 C-119.76843658 340.63739441 -119.76843658 340.63739441 -119.75878906 339.33007812 C-119.75719788 338.57666138 -119.75560669 337.82324463 -119.75396729 337.04699707 C-119.5 335.1875 -119.5 335.1875 -117.5 333.1875 C-114.70263672 332.96044922 -114.70263672 332.96044922 -111.1796875 332.9921875 C-109.92285156 332.99863281 -108.66601562 333.00507813 -107.37109375 333.01171875 C-106.05238281 333.02847656 -104.73367187 333.04523438 -103.375 333.0625 C-102.03516279 333.07253017 -100.69531848 333.08165596 -99.35546875 333.08984375 C-96.07023624 333.11347852 -92.78509602 333.1493505 -89.5 333.1875 C-89.5 326.5875 -89.5 319.9875 -89.5 313.1875 C-103.69 313.1875 -117.88 313.1875 -132.5 313.1875 C-134.5 308.1875 -134.5 308.1875 -134.5 298.1875 C-144.07 298.1875 -153.64 298.1875 -163.5 298.1875 C-163.5 290.9275 -163.5 283.6675 -163.5 276.1875 C-175.38 276.1875 -187.26 276.1875 -199.5 276.1875 C-199.46040482 285.3573291 -199.46040482 285.3573291 -199.40991211 294.52709961 C-199.40741455 295.66155518 -199.40491699 296.79601074 -199.40234375 297.96484375 C-199.39710693 299.13265381 -199.39187012 300.30046387 -199.38647461 301.50366211 C-199.5 304.1875 -199.5 304.1875 -200.5 305.1875 C-202.48642661 305.33358293 -204.47768786 305.41487555 -206.46875 305.46875 C-207.67917969 305.50613281 -208.88960938 305.54351562 -210.13671875 305.58203125 C-214 305.6875 -214 305.6875 -217.86328125 305.79296875 C-219.07371094 305.83035156 -220.28414063 305.86773437 -221.53125 305.90625 C-222.65080078 305.93654297 -223.77035156 305.96683594 -224.92382812 305.99804688 C-227.43064283 305.90036235 -227.43064283 305.90036235 -228.5 307.1875 C-228.64452718 308.66257118 -228.72694925 310.1438604 -228.78125 311.625 C-228.81863281 312.51960938 -228.85601562 313.41421875 -228.89453125 314.3359375 C-228.92933594 315.27695312 -228.96414062 316.21796875 -229 317.1875 C-229.06858488 319.04183195 -229.14127813 320.89601808 -229.21875 322.75 C-229.24904297 323.57628906 -229.27933594 324.40257812 -229.31054688 325.25390625 C-229.5 327.1875 -229.5 327.1875 -230.5 328.1875 C-232.57262076 328.27517112 -234.64820294 328.29445873 -236.72265625 328.28515625 C-237.98271484 328.28193359 -239.24277344 328.27871094 -240.54101562 328.27539062 C-241.88151109 328.26703403 -243.22200588 328.25856907 -244.5625 328.25 C-245.90689942 328.2449866 -247.2513006 328.24042342 -248.59570312 328.23632812 C-251.89717941 328.22449488 -255.19856803 328.20800971 -258.5 328.1875 C-258.48839844 329.11433594 -258.47679687 330.04117187 -258.46484375 330.99609375 C-258.45582031 332.19363281 -258.44679688 333.39117187 -258.4375 334.625 C-258.42589844 335.81996094 -258.41429687 337.01492188 -258.40234375 338.24609375 C-258.5 341.1875 -258.5 341.1875 -259.5 342.1875 C-263.57077434 342.57409555 -267.66455276 342.65833218 -271.75 342.8125 C-272.89597656 342.8640625 -274.04195312 342.915625 -275.22265625 342.96875 C-276.32996094 343.01257813 -277.43726563 343.05640625 -278.578125 343.1015625 C-280.10034668 343.1627124 -280.10034668 343.1627124 -281.65332031 343.22509766 C-284.5 343.1875 -284.5 343.1875 -289.5 342.1875 C-289.5 329.9775 -289.5 317.7675 -289.5 305.1875 C-287.19 304.8575 -284.88 304.5275 -282.5 304.1875 C-282.50785522 302.55953491 -282.50785522 302.55953491 -282.51586914 300.89868164 C-282.53391836 296.88632018 -282.54543171 292.87396233 -282.55493164 288.86157227 C-282.55997204 287.12230832 -282.5668043 285.38304864 -282.57543945 283.64379883 C-282.58751792 281.14924063 -282.59323108 278.65473827 -282.59765625 276.16015625 C-282.60281754 275.37786148 -282.60797882 274.59556671 -282.61329651 273.78956604 C-282.61349226 271.92182886 -282.56199694 270.05420796 -282.5 268.1875 C-282.17 267.8575 -281.84 267.5275 -281.5 267.1875 C-276.88 267.1875 -272.26 267.1875 -267.5 267.1875 C-267.5 248.0475 -267.5 228.9075 -267.5 209.1875 C-272.12 209.1875 -276.74 209.1875 -281.5 209.1875 C-283.33219646 207.35530354 -282.73901328 204.43036259 -282.81640625 201.96484375 C-282.85830078 200.70478516 -282.90019531 199.44472656 -282.94335938 198.14648438 C-282.98317596 196.80599264 -283.02288814 195.4654978 -283.0625 194.125 C-283.10568042 192.78058477 -283.14929456 191.4361834 -283.19335938 190.09179688 C-283.29985358 186.7904766 -283.4018646 183.48907764 -283.5 180.1875 C-284.42683594 180.12691406 -285.35367188 180.06632813 -286.30859375 180.00390625 C-287.50613281 179.92011719 -288.70367187 179.83632812 -289.9375 179.75 C-291.72994141 179.62818359 -291.72994141 179.62818359 -293.55859375 179.50390625 C-296.5 179.1875 -296.5 179.1875 -297.5 178.1875 C-297.58767112 176.11487924 -297.60695873 174.03929706 -297.59765625 171.96484375 C-297.59443359 170.70478516 -297.59121094 169.44472656 -297.58789062 168.14648438 C-297.57953403 166.80598891 -297.57106907 165.46549412 -297.5625 164.125 C-297.5574866 162.78060058 -297.55292342 161.4361994 -297.54882812 160.09179688 C-297.53699488 156.79032059 -297.52050971 153.48893197 -297.5 150.1875 C-298.76457031 150.20490234 -298.76457031 150.20490234 -300.0546875 150.22265625 C-301.69824219 150.23619141 -301.69824219 150.23619141 -303.375 150.25 C-304.46554687 150.26160156 -305.55609375 150.27320313 -306.6796875 150.28515625 C-309.5 150.1875 -309.5 150.1875 -311.5 149.1875 C-311.52465746 145.0757744 -311.54283959 140.96407722 -311.55493164 136.85229492 C-311.5599708 135.45254772 -311.56680216 134.0528058 -311.57543945 132.65307617 C-311.5875232 130.64504223 -311.59269807 128.63697043 -311.59765625 126.62890625 C-311.60289307 125.41920166 -311.60812988 124.20949707 -311.61352539 122.96313477 C-311.5 120.1875 -311.5 120.1875 -310.5 119.1875 C-308.4394469 119.08756468 -306.3754741 119.05669094 -304.3125 119.0546875 C-303.05695313 119.05339844 -301.80140625 119.05210937 -300.5078125 119.05078125 C-299.85071289 119.05287598 -299.19361328 119.0549707 -298.51660156 119.05712891 C-296.50838665 119.06247766 -294.50039541 119.05718309 -292.4921875 119.05078125 C-291.23664063 119.05207031 -289.98109375 119.05335938 -288.6875 119.0546875 C-287.52605469 119.05581543 -286.36460937 119.05694336 -285.16796875 119.05810547 C-282.5 119.1875 -282.5 119.1875 -281.5 120.1875 C-281.26518307 122.37042774 -281.08636677 124.55953174 -280.9375 126.75 C-280.81181641 128.54630859 -280.81181641 128.54630859 -280.68359375 130.37890625 C-280.62300781 131.30574219 -280.56242187 132.23257813 -280.5 133.1875 C-279.55362671 133.22508423 -279.55362671 133.22508423 -278.58813477 133.26342773 C-275.74603175 133.37904137 -272.90428917 133.50192316 -270.0625 133.625 C-269.06927734 133.66431641 -268.07605469 133.70363281 -267.05273438 133.74414062 C-266.10849609 133.78603516 -265.16425781 133.82792969 -264.19140625 133.87109375 C-262.87958374 133.92608032 -262.87958374 133.92608032 -261.54125977 133.98217773 C-259.5 134.1875 -259.5 134.1875 -258.5 135.1875 C-258.42741054 137.37389453 -258.41626217 139.56250389 -258.4375 141.75 C-258.44652344 142.94753906 -258.45554687 144.14507812 -258.46484375 145.37890625 C-258.47644531 146.30574219 -258.48804688 147.23257813 -258.5 148.1875 C-257.65703369 148.18226318 -256.81406738 148.17702637 -255.94555664 148.17163086 C-252.82772064 148.15462174 -249.70990823 148.14206594 -246.59204102 148.13256836 C-245.24079614 148.12752943 -243.88955674 148.12069823 -242.53833008 148.11206055 C-240.59979566 148.09997581 -238.661222 148.09480172 -236.72265625 148.08984375 C-235.55484619 148.08460693 -234.38703613 148.07937012 -233.18383789 148.07397461 C-230.5 148.1875 -230.5 148.1875 -229.5 149.1875 C-229.34285346 150.82006758 -229.24914586 152.45885338 -229.18359375 154.09765625 C-229.14548584 154.988479 -229.10737793 155.87930176 -229.06811523 156.79711914 C-229.00346069 158.50629517 -229.00346069 158.50629517 -228.9375 160.25 C-228.7209375 165.6640625 -228.7209375 165.6640625 -228.5 171.1875 C-219.26 171.1875 -210.02 171.1875 -200.5 171.1875 C-199.13160637 173.92428725 -199.28365182 176.23014424 -199.18359375 179.2890625 C-199.14548584 180.38041504 -199.10737793 181.47176758 -199.06811523 182.59619141 C-199.00346069 184.68326416 -199.00346069 184.68326416 -198.9375 186.8125 C-198.7209375 193.433125 -198.7209375 193.433125 -198.5 200.1875 C-187.28 200.1875 -176.06 200.1875 -164.5 200.1875 C-164.17 188.3075 -163.84 176.4275 -163.5 164.1875 C-161.17304476 163.02402238 -159.80059827 163.0584492 -157.2109375 163.0546875 C-156.35113281 163.05339844 -155.49132812 163.05210937 -154.60546875 163.05078125 C-153.70441406 163.05464844 -152.80335938 163.05851563 -151.875 163.0625 C-150.99714844 163.05863281 -150.11929688 163.05476562 -149.21484375 163.05078125 C-134.61502511 163.07247489 -134.61502511 163.07247489 -132.5 165.1875 C-132.5 169.4775 -132.5 173.7675 -132.5 178.1875 C-123.26 178.1875 -114.02 178.1875 -104.5 178.1875 C-104.51160156 176.10566406 -104.52320313 174.02382812 -104.53515625 171.87890625 C-104.54210735 169.87003702 -104.54902389 167.86116749 -104.55493164 165.85229492 C-104.5599708 164.45254772 -104.56680216 163.0528058 -104.57543945 161.65307617 C-104.5875232 159.64504223 -104.59269807 157.63697043 -104.59765625 155.62890625 C-104.60289307 154.41920166 -104.60812988 153.20949707 -104.61352539 151.96313477 C-104.5 149.1875 -104.5 149.1875 -103.5 148.1875 C-101.35441173 148.09974395 -99.20595579 148.08054781 -97.05859375 148.08984375 C-95.75341797 148.09306641 -94.44824219 148.09628906 -93.10351562 148.09960938 C-91.7148431 148.10796599 -90.32617123 148.11643095 -88.9375 148.125 C-87.54492344 148.13001334 -86.15234519 148.13457653 -84.75976562 148.13867188 C-81.3398013 148.15050566 -77.91992156 148.1669912 -74.5 148.1875 C-74.50523682 147.34453369 -74.51047363 146.50156738 -74.51586914 145.63305664 C-74.53287826 142.51522064 -74.54543406 139.39740823 -74.55493164 136.27954102 C-74.55997057 134.92829614 -74.56680177 133.57705674 -74.57543945 132.22583008 C-74.58752419 130.28729566 -74.59269828 128.348722 -74.59765625 126.41015625 C-74.60289307 125.24234619 -74.60812988 124.07453613 -74.61352539 122.87133789 C-74.5 120.1875 -74.5 120.1875 -73.5 119.1875 C-54.36 119.1875 -35.22 119.1875 -15.5 119.1875 C-15.5 80.2475 -15.5 41.3075 -15.5 1.1875 C-11.0372169 -1.04389155 -4.90089668 0.00250301 0 0 Z M14.5 60.1875 C14.5 79.9875 14.5 99.7875 14.5 120.1875 C4.93 120.1875 -4.64 120.1875 -14.5 120.1875 C-14.83 120.5175 -15.16 120.8475 -15.5 121.1875 C-15.5 130.4275 -15.5 139.6675 -15.5 149.1875 C-34.64 149.1875 -53.78 149.1875 -73.5 149.1875 C-73.5 159.0875 -73.5 168.9875 -73.5 179.1875 C-83.4 179.1875 -93.3 179.1875 -103.5 179.1875 C-103.5 188.7575 -103.5 198.3275 -103.5 208.1875 C-123.3 208.1875 -143.1 208.1875 -163.5 208.1875 C-163.5 213.1375 -163.5 218.0875 -163.5 223.1875 C-178.02 223.1875 -192.54 223.1875 -207.5 223.1875 C-207.5 213.6175 -207.5 204.0475 -207.5 194.1875 C-214.76 194.1875 -222.02 194.1875 -229.5 194.1875 C-229.5 189.2375 -229.5 184.2875 -229.5 179.1875 C-234.45 179.1875 -239.4 179.1875 -244.5 179.1875 C-244.5 171.9275 -244.5 164.6675 -244.5 157.1875 C-254.4 157.1875 -264.3 157.1875 -274.5 157.1875 C-274.5 166.7575 -274.5 176.3275 -274.5 186.1875 C-269.55 186.1875 -264.6 186.1875 -259.5 186.1875 C-259.5 193.7775 -259.5 201.3675 -259.5 209.1875 C-252.24 209.1875 -244.98 209.1875 -237.5 209.1875 C-237.5 228.6575 -237.5 248.1275 -237.5 268.1875 C-244.76 268.1875 -252.02 268.1875 -259.5 268.1875 C-259.5 272.8075 -259.5 277.4275 -259.5 282.1875 C-264.45 282.1875 -269.4 282.1875 -274.5 282.1875 C-274.5 292.0875 -274.5 301.9875 -274.5 312.1875 C-264.6 312.1875 -254.7 312.1875 -244.5 312.1875 C-244.5 307.5675 -244.5 302.9475 -244.5 298.1875 C-239.55 298.1875 -234.6 298.1875 -229.5 298.1875 C-229.5 290.9275 -229.5 283.6675 -229.5 276.1875 C-222.24 276.1875 -214.98 276.1875 -207.5 276.1875 C-207.5 268.5975 -207.5 261.0075 -207.5 253.1875 C-192.98 253.1875 -178.46 253.1875 -163.5 253.1875 C-163.5 258.1375 -163.5 263.0875 -163.5 268.1875 C-153.6 268.1875 -143.7 268.1875 -133.5 268.1875 C-133.5 272.8075 -133.5 277.4275 -133.5 282.1875 C-118.65 282.1875 -103.8 282.1875 -88.5 282.1875 C-88.5 289.7775 -88.5 297.3675 -88.5 305.1875 C-78.93 305.1875 -69.36 305.1875 -59.5 305.1875 C-59.5 314.7575 -59.5 324.3275 -59.5 334.1875 C-73.9375 334.125 -73.9375 334.125 -78.49780273 334.09741211 C-79.67286377 334.09491455 -80.8479248 334.09241699 -82.05859375 334.08984375 C-83.26829834 334.08460693 -84.47800293 334.07937012 -85.72436523 334.07397461 C-88.40812017 333.86974715 -88.40812017 333.86974715 -89.5 335.1875 C-89.5 344.7575 -89.5 354.3275 -89.5 364.1875 C-64.75 364.1875 -40 364.1875 -14.5 364.1875 C-14.5 354.6175 -14.5 345.0475 -14.5 335.1875 C-9.55 335.1875 -4.6 335.1875 0.5 335.1875 C0.5 325.2875 0.5 315.3875 0.5 305.1875 C24.26 305.1875 48.02 305.1875 72.5 305.1875 C72.83 300.2375 73.16 295.2875 73.5 290.1875 C74.16 290.1875 74.82 290.1875 75.5 290.1875 C75.17 290.5175 74.84 290.8475 74.5 291.1875 C74.42741054 293.37389453 74.41626217 295.56250389 74.4375 297.75 C74.4684375 300.9365625 74.4684375 300.9365625 74.5 304.1875 C84.895 304.6825 84.895 304.6825 95.5 305.1875 C95.72786458 308.54036458 95.95572917 311.89322917 96.18359375 315.24609375 C96.17656114 318.07320244 96.17656114 318.07320244 97.5 319.1875 C99.86547519 319.28513971 102.20170935 319.31747288 104.56764221 319.30775452 C105.31578672 319.30860894 106.06393123 319.30946337 106.83474678 319.31034368 C109.36063947 319.31200073 111.88646686 319.30647348 114.41235352 319.30102539 C116.21543374 319.30074354 118.01851408 319.30090121 119.82159424 319.3014679 C124.73254539 319.30175596 129.64347234 319.29585784 134.55441785 319.28889394 C139.68072212 319.28266184 144.80702688 319.28205672 149.93333435 319.28086853 C159.64790626 319.27775479 169.36246697 319.26954083 179.07703394 319.25951904 C190.13367717 319.24835923 201.19032093 319.24284779 212.24696839 319.23782361 C234.99798514 319.22735825 257.74899195 319.20975798 280.5 319.1875 C281.59911549 315.89015354 281.6139456 313.45791255 281.59765625 309.98828125 C281.59390991 308.35499878 281.59390991 308.35499878 281.59008789 306.6887207 C281.58098389 305.30644287 281.57187988 303.92416504 281.5625 302.5 C281.5315625 295.9103125 281.5315625 295.9103125 281.5 289.1875 C291.07 289.1875 300.64 289.1875 310.5 289.1875 C310.46041531 282.32137193 310.46041531 282.32137193 310.40991211 275.45532227 C310.40616577 274.17999634 310.40616577 274.17999634 310.40234375 272.87890625 C310.39710693 272.00435791 310.39187012 271.12980957 310.38647461 270.22875977 C310.5 268.1875 310.5 268.1875 311.5 267.1875 C311.58775605 265.04191173 311.60695219 262.89345579 311.59765625 260.74609375 C311.59390991 258.9835022 311.59390991 258.9835022 311.59008789 257.18530273 C311.58098389 255.68040283 311.57187988 254.17550293 311.5625 252.625 C311.5315625 245.4784375 311.5315625 245.4784375 311.5 238.1875 C301.6 238.1875 291.7 238.1875 281.5 238.1875 C281.5625 223.75 281.5625 223.75 281.59008789 219.18969727 C281.59258545 218.01463623 281.59508301 216.8395752 281.59765625 215.62890625 C281.60289307 214.41920166 281.60812988 213.20949707 281.61352539 211.96313477 C281.81775285 209.27937983 281.81775285 209.27937983 280.5 208.1875 C278.42737924 208.09982888 276.35179706 208.08054127 274.27734375 208.08984375 C272.38725586 208.09467773 272.38725586 208.09467773 270.45898438 208.09960938 C269.11848891 208.10796597 267.77799412 208.11643093 266.4375 208.125 C265.09310058 208.1300134 263.7486994 208.13457658 262.40429688 208.13867188 C259.10282059 208.15050512 255.80143197 208.16699029 252.5 208.1875 C252.50523682 207.34453369 252.51047363 206.50156738 252.51586914 205.63305664 C252.53287826 202.51522064 252.54543406 199.39740823 252.55493164 196.27954102 C252.55997057 194.92829614 252.56680177 193.57705674 252.57543945 192.22583008 C252.58752419 190.28729566 252.59269828 188.348722 252.59765625 186.41015625 C252.60289307 185.24234619 252.60812988 184.07453613 252.61352539 182.87133789 C252.80661495 180.26858449 252.80661495 180.26858449 251.5 179.1875 C249.68944975 179.09373947 247.87522799 179.0700589 246.06225586 179.07397461 C244.90112778 179.07405014 243.73999969 179.07412567 242.54368591 179.07420349 C241.280168 179.07936478 240.01665009 179.08452606 238.71484375 179.08984375 C236.78591026 179.09196617 236.78591026 179.09196617 234.81800842 179.09413147 C231.39356557 179.09795582 227.96916491 179.10778538 224.54473877 179.11883545 C221.05261811 179.12905136 217.56049066 179.13362947 214.06835938 179.13867188 C207.21222222 179.14940773 200.35611313 179.16648316 193.5 179.1875 C193.50523682 178.31424072 193.51047363 177.44098145 193.51586914 176.54125977 C193.53287751 173.31160727 193.54543369 170.08197755 193.55493164 166.85229492 C193.5599708 165.45254772 193.56680216 164.0528058 193.57543945 162.65307617 C193.5875232 160.64504223 193.59269807 158.63697043 193.59765625 156.62890625 C193.60289307 155.41920166 193.60812988 154.20949707 193.61352539 152.96313477 C193.81775285 150.27937983 193.81775285 150.27937983 192.5 149.1875 C189.73061034 149.09232197 186.98622841 149.06195735 184.21655273 149.07397461 C183.34833893 149.07382858 182.48012512 149.07368256 181.58560181 149.0735321 C178.70157414 149.07423154 175.8176102 149.08202537 172.93359375 149.08984375 C170.93962133 149.09170782 168.94564845 149.09313177 166.95167542 149.09413147 C161.69254298 149.09795752 156.43343797 149.10778855 151.17431641 149.11883545 C145.81217825 149.1290477 140.45003569 149.13362869 135.08789062 149.13867188 C124.55857973 149.14941074 114.02929643 149.16700824 103.5 149.1875 C103.5 139.6175 103.5 130.0475 103.5 120.1875 C93.93 120.1875 84.36 120.1875 74.5 120.1875 C74.5625 105.75 74.5625 105.75 74.59008789 101.18969727 C74.59383423 99.42710571 74.59383423 99.42710571 74.59765625 97.62890625 C74.60289307 96.41920166 74.60812988 95.20949707 74.61352539 93.96313477 C74.81775285 91.27937983 74.81775285 91.27937983 73.5 90.1875 C71.35441173 90.09974395 69.20595579 90.08054781 67.05859375 90.08984375 C65.75341797 90.09306641 64.44824219 90.09628906 63.10351562 90.09960938 C61.7148431 90.10796599 60.32617123 90.11643095 58.9375 90.125 C57.54492344 90.13001334 56.15234519 90.13457653 54.75976562 90.13867188 C51.3398013 90.15050566 47.91992156 90.1669912 44.5 90.1875 C44.50523682 89.31424072 44.51047363 88.44098145 44.51586914 87.54125977 C44.53287751 84.31160727 44.54543369 81.08197755 44.55493164 77.85229492 C44.5599708 76.45254772 44.56680216 75.0528058 44.57543945 73.65307617 C44.5875232 71.64504223 44.59269807 69.63697043 44.59765625 67.62890625 C44.60289307 66.41920166 44.60812988 65.20949707 44.61352539 63.96313477 C44.81775285 61.27937983 44.81775285 61.27937983 43.5 60.1875 C33.93 60.1875 24.36 60.1875 14.5 60.1875 Z " fill="#000001" transform="translate(342.5,66.8125)"/>
<path d="M0 0 C9.57 0 19.14 0 29 0 C29 16.83 29 33.66 29 51 C30.485 51.495 30.485 51.495 32 52 C31.01 54.64 30.02 57.28 29 60 C19.43 60 9.86 60 0 60 C0 40.2 0 20.4 0 0 Z " fill="#010103" transform="translate(513,283)"/>
<path d="M0 0 C9.9 0 19.8 0 30 0 C30 17.16 30 34.32 30 52 C20.1 52 10.2 52 0 52 C0 34.84 0 17.68 0 0 Z " fill="#010205" transform="translate(357,268)"/>
<path d="M0 0 C9.57 0 19.14 0 29 0 C29 16.83 29 33.66 29 51 C19.43 51 9.86 51 0 51 C0 34.17 0 17.34 0 0 Z " fill="#000002" transform="translate(313,269)"/>
<path d="M0 0 C9.57 0 19.14 0 29 0 C29 8.58 29 17.16 29 26 C28.67 26 28.34 26 28 26 C28 18.08 28 10.16 28 2 C19.42 2 10.84 2 2 2 C2.33 21.14 2.66 40.28 3 60 C1.35 60.99 -0.3 61.98 -2 63 C-2 62.34 -2 61.68 -2 61 C-1.34 61 -0.68 61 0 61 C0 40.87 0 20.74 0 0 Z " fill="#536278" transform="translate(357,127)"/>
<path d="M0 0 C14.85 0 29.7 0 45 0 C45 7.59 45 15.18 45 23 C54.57 23 64.14 23 74 23 C74 32.57 74 42.14 74 52 C71.36 52 68.72 52 66 52 C66 51.67 66 51.34 66 51 C67.98 51 69.96 51 72 51 C71.505 38.13 71.505 38.13 71 25 C63.08 24.67 55.16 24.34 47 24 C46.505 25.485 46.505 25.485 46 27 C44.68 26.34 43.36 25.68 42 25 C42.66 24.67 43.32 24.34 44 24 C44 16.41 44 8.82 44 1 C29.48 1 14.96 1 0 1 C0 0.67 0 0.34 0 0 Z " fill="#111824" transform="translate(209,349)"/>
<path d="M0 0 C0.8177037 0.00198395 1.63540741 0.0039679 2.47789001 0.00601196 C3.76323891 0.00403305 3.76323891 0.00403305 5.07455444 0.00201416 C7.92127421 0.00007473 10.76789871 0.00649581 13.61460876 0.01382446 C14.58297668 0.01471069 15.5513446 0.01559692 16.54905701 0.01651001 C38.47427604 0.03993343 60.38617401 0.53663274 82.30210876 1.13882446 C82.30210876 1.46882446 82.30210876 1.79882446 82.30210876 2.13882446 C53.92210876 2.13882446 25.54210876 2.13882446 -3.69789124 2.13882446 C-3.69789124 6.75882446 -3.69789124 11.37882446 -3.69789124 16.13882446 C-4.68789124 16.13882446 -5.67789124 16.13882446 -6.69789124 16.13882446 C-6.72474219 13.65958645 -6.74465671 11.18063606 -6.76039124 8.70132446 C-6.77295959 7.64074829 -6.77295959 7.64074829 -6.78578186 6.55874634 C-6.79442711 4.75188887 -6.75009135 2.94494844 -6.69789124 1.13882446 C-4.88922753 -0.66983924 -2.40784013 0.01012048 0 0 Z " fill="#182232" transform="translate(421.69789123535156,355.8611755371094)"/>
<path d="M0 0 C0.33 0 0.66 0 1 0 C1 19.8 1 39.6 1 60 C-8.24 60 -17.48 60 -27 60 C-27 59.67 -27 59.34 -27 59 C-26.31897217 58.97494385 -25.63794434 58.9498877 -24.9362793 58.92407227 C-21.85316245 58.80809048 -18.77034954 58.68537384 -15.6875 58.5625 C-14.61564453 58.52318359 -13.54378906 58.48386719 -12.43945312 58.44335938 C-11.41142578 58.40146484 -10.38339844 58.35957031 -9.32421875 58.31640625 C-8.37635498 58.27974854 -7.42849121 58.24309082 -6.4519043 58.20532227 C-3.863829 58.08569813 -3.863829 58.08569813 -1 57 C-1.00222061 56.30064835 -1.00444122 55.60129669 -1.00672913 54.88075256 C-1.0267328 48.30295079 -1.04197452 41.72515746 -1.05181217 35.14733219 C-1.05703975 31.76528187 -1.06413511 28.3832566 -1.07543945 25.0012207 C-1.08834267 21.11670223 -1.09322924 17.23219403 -1.09765625 13.34765625 C-1.10281754 12.12788589 -1.10797882 10.90811554 -1.11329651 9.65138245 C-1.11340981 7.96975258 -1.11340981 7.96975258 -1.11352539 6.25415039 C-1.115746 5.26153702 -1.11796661 4.26892365 -1.12025452 3.24623108 C-1 1 -1 1 0 0 Z " fill="#010510" transform="translate(356,127)"/>
<path d="M0 0 C0.33 0 0.66 0 1 0 C1 19.8 1 39.6 1 60 C-1.97 60.495 -1.97 60.495 -5 61 C-5.33 65.29 -5.66 69.58 -6 74 C-21.18 74 -36.36 74 -52 74 C-52 73.67 -52 73.34 -52 73 C-37.48 72.67 -22.96 72.34 -8 72 C-7.67 67.38 -7.34 62.76 -7 58 C-4.69 58 -2.38 58 0 58 C0 38.86 0 19.72 0 0 Z " fill="#445267" transform="translate(512,283)"/>
<path d="M0 0 C-21.45 0 -42.9 0 -65 0 C-65 -0.66 -65 -1.32 -65 -2 C-56.96834015 -2.20014422 -48.93654487 -2.38386974 -40.90404797 -2.54658794 C-37.17431552 -2.62266018 -33.44488662 -2.70440366 -29.71557617 -2.79907227 C-26.11721683 -2.89020858 -22.51882205 -2.9664941 -18.91991615 -3.03244972 C-17.54627028 -3.06024208 -16.1727223 -3.09340333 -14.79933739 -3.13199425 C-12.87722487 -3.18509073 -10.95457233 -3.21741309 -9.03198242 -3.2487793 C-7.93722092 -3.27320602 -6.84245941 -3.29763275 -5.71452332 -3.32279968 C-3 -3 -3 -3 0 0 Z " fill="#5D6B83" transform="translate(415,372)"/>
<path d="M0 0 C9.57 0 19.14 0 29 0 C29 9.57 29 19.14 29 29 C27.07129883 25.14259767 26.75716624 23.88370357 26.8046875 19.796875 C26.81113281 18.8171875 26.81757813 17.8375 26.82421875 16.828125 C26.84097656 15.81234375 26.85773438 14.7965625 26.875 13.75 C26.88402344 12.71875 26.89304687 11.6875 26.90234375 10.625 C26.92587989 8.08309713 26.95875977 5.5416672 27 3 C26.01 3 25.02 3 24 3 C24 2.34 24 1.68 24 1 C23.28457031 1.0721875 22.56914062 1.144375 21.83203125 1.21875 C14.19966468 1.92965607 6.6626184 2.11123156 -1 2 C-0.67 1.34 -0.34 0.68 0 0 Z " fill="#5E6D86" transform="translate(417,187)"/>
<path d="M0 0 C9.57 0 19.14 0 29 0 C25.94981572 3.05018428 23.3036107 3.12735397 19.18359375 3.1328125 C18.25482422 3.13410156 17.32605469 3.13539063 16.36914062 3.13671875 C15.40169922 3.13285156 14.43425781 3.12898437 13.4375 3.125 C11.98053711 3.13080078 11.98053711 3.13080078 10.49414062 3.13671875 C9.56666016 3.13542969 8.63917969 3.13414062 7.68359375 3.1328125 C6.83337646 3.13168457 5.98315918 3.13055664 5.10717773 3.12939453 C3 3 3 3 1 2 C1 10.91 1 19.82 1 29 C0.67 29 0.34 29 0 29 C0 19.43 0 9.86 0 0 Z " fill="#5D6E86" transform="translate(328,187)"/>
<path d="M0 0 C4.39656173 -0.02465504 8.7930872 -0.04283842 13.18969727 -0.05493164 C14.68644918 -0.05997121 16.18319616 -0.06680287 17.67993164 -0.07543945 C19.82699807 -0.08752159 21.97399962 -0.09323191 24.12109375 -0.09765625 C26.06133423 -0.10551147 26.06133423 -0.10551147 28.04077148 -0.11352539 C31 0 31 0 32 1 C32.15620555 2.41327947 32.25056173 3.8335459 32.31640625 5.25390625 C32.35830078 6.10791016 32.40019531 6.96191406 32.44335938 7.84179688 C32.48267578 8.73962891 32.52199219 9.63746094 32.5625 10.5625 C32.60568359 11.46419922 32.64886719 12.36589844 32.69335938 13.29492188 C32.79977984 15.52975156 32.90042481 17.76485486 33 20 C38.94 20.99 38.94 20.99 45 22 C45 22.33 45 22.66 45 23 C40.05 23 35.1 23 30 23 C30 15.74 30 8.48 30 1 C20.1 1 10.2 1 0 1 C0 0.67 0 0.34 0 0 Z " fill="#111522" transform="translate(68,223)"/>
<path d="M0 0 C0.33 0 0.66 0 1 0 C1 4.62 1 9.24 1 14 C-7.91 14 -16.82 14 -26 14 C-26 13.34 -26 12.68 -26 12 C-17.42 11.67 -8.84 11.34 0 11 C0 7.37 0 3.74 0 0 Z " fill="#5A677D" transform="translate(97,365)"/>
<path d="M0 0 C0.33 0 0.66 0 1 0 C1 8.91 1 17.82 1 27 C-1.31 27 -3.62 27 -6 27 C-5 25 -5 25 -2 24 C-1.97494385 23.41508789 -1.9498877 22.83017578 -1.92407227 22.22753906 C-1.80777038 19.56815529 -1.68519933 16.90909597 -1.5625 14.25 C-1.50352539 12.86941406 -1.50352539 12.86941406 -1.44335938 11.4609375 C-1.40146484 10.57148438 -1.35957031 9.68203125 -1.31640625 8.765625 C-1.26141968 7.54020996 -1.26141968 7.54020996 -1.20532227 6.29003906 C-1.00865725 4.0965577 -0.59699406 2.11603587 0 0 Z " fill="#050914" transform="translate(238,248)"/>
<path d="M0 0 C0.33 0 0.66 0 1 0 C1 6.93 1 13.86 1 21 C-5.93 21 -12.86 21 -20 21 C-20 20.67 -20 20.34 -20 20 C-18.86820312 19.93941406 -17.73640625 19.87882812 -16.5703125 19.81640625 C-15.08852855 19.73200083 -13.6067584 19.64735283 -12.125 19.5625 C-11.37863281 19.52318359 -10.63226563 19.48386719 -9.86328125 19.44335938 C-5.80013136 19.28426376 -5.80013136 19.28426376 -2 18 C-1.53272148 16.16471137 -1.53272148 16.16471137 -1.3671875 13.96484375 C-1.24150391 12.75151367 -1.24150391 12.75151367 -1.11328125 11.51367188 C-1.03464844 10.66353516 -0.95601562 9.81339844 -0.875 8.9375 C-0.78863281 8.08349609 -0.70226562 7.22949219 -0.61328125 6.34960938 C-0.40052772 4.23389367 -0.19920047 2.11703476 0 0 Z " fill="#5D6D84" transform="translate(134,321)"/>
<path d="M0 0 C0.33 0 0.66 0 1 0 C1 9.9 1 19.8 1 30 C0.01 30.33 -0.98 30.66 -2 31 C-3 28 -3 28 -2.08837891 26.16503906 C-1.72921387 25.45057617 -1.37004883 24.73611328 -1 24 C-0.63611114 21.29465143 -0.63611114 21.29465143 -0.5859375 18.359375 C-0.54726562 17.28945312 -0.50859375 16.21953125 -0.46875 15.1171875 C-0.4378125 14.00601563 -0.406875 12.89484375 -0.375 11.75 C-0.33632812 10.62335938 -0.29765625 9.49671875 -0.2578125 8.3359375 C-0.16362664 5.55745452 -0.07800414 2.77897666 0 0 Z " fill="#01030E" transform="translate(67,223)"/>
<path d="M0 0 C0.33 0 0.66 0 1 0 C1 8.58 1 17.16 1 26 C-0.98 26 -2.96 26 -5 26 C-3.68 25.34 -2.36 24.68 -1 24 C-0.67 16.08 -0.34 8.16 0 0 Z " fill="#01030D" transform="translate(267,219)"/>
<path d="M0 0 C7.92 0 15.84 0 24 0 C24 0.99 24 1.98 24 3 C22.02 3 20.04 3 18 3 C18 2.67 18 2.34 18 2 C11.73 2 5.46 2 -1 2 C-0.67 1.34 -0.34 0.68 0 0 Z " fill="#000612" transform="translate(518,283)"/>
<path d="M0 0 C2.64 0 5.28 0 8 0 C8 0.66 8 1.32 8 2 C6.02 2.33 4.04 2.66 2 3 C1.67 7.29 1.34 11.58 1 16 C0.01 15.67 -0.98 15.34 -2 15 C-1.67 14.67 -1.34 14.34 -1 14 C-0.76472227 11.65012738 -0.58613583 9.29443961 -0.4375 6.9375 C-0.35371094 5.64714844 -0.26992188 4.35679687 -0.18359375 3.02734375 C-0.12300781 2.02832031 -0.06242187 1.02929688 0 0 Z " fill="#2C405D" transform="translate(505,341)"/>
</svg>
